<?xml version="1.0" standalone="no"?>
<!DOCTYPE svg PUBLIC "-//W3C//DTD SVG 20010904//EN"
 "http://www.w3.org/TR/2001/REC-SVG-20010904/DTD/svg10.dtd">
<svg version="1.0" xmlns="http://www.w3.org/2000/svg"
 width="300.000000pt" height="300.000000pt" viewBox="0 0 300.000000 300.000000"
 preserveAspectRatio="xMidYMid meet">

<g transform="translate(0.000000,300.000000) scale(0.100000,-0.100000)"
fill="#000000" stroke="none">
<path d="M722 2942 c-29 -15 -51 -31 -48 -37 2 -5 125 -204 273 -441 l270
-431 -48 -214 c-27 -118 -67 -304 -89 -414 -22 -110 -95 -438 -161 -729 -66
-291 -119 -536 -117 -544 2 -8 27 -23 55 -33 l53 -18 9 37 c5 20 30 131 56
247 25 116 57 257 70 315 13 58 45 197 70 310 26 112 48 206 50 208 1 2 38
-52 81 -120 42 -68 96 -150 119 -183 23 -33 89 -134 145 -225 57 -91 117 -183
133 -205 15 -22 70 -106 121 -188 51 -81 95 -150 98 -153 3 -2 33 7 66 22 l60
26 -65 106 c-36 59 -80 127 -97 151 -17 24 -44 64 -60 90 -16 25 -71 109 -121
186 -289 440 -405 619 -402 621 5 3 173 88 352 177 105 52 206 104 226 115
494 277 724 585 641 858 -48 159 -176 280 -355 338 -10 3 -52 9 -93 12 -157
12 -288 -41 -417 -169 -46 -45 -105 -113 -132 -152 -54 -76 -155 -270 -155
-296 0 -9 -6 -22 -14 -28 -15 -13 2 -38 -295 439 -112 179 -208 330 -214 337
-9 8 -25 5 -65 -15z m1391 -273 c63 -16 140 -92 187 -183 24 -48 30 -72 30
-125 0 -39 -6 -78 -15 -95 -8 -15 -15 -32 -15 -37 0 -17 -74 -125 -119 -173
-95 -101 -312 -262 -456 -337 -33 -17 -67 -37 -75 -44 -8 -7 -46 -30 -85 -50
-259 -137 -337 -176 -341 -173 -2 3 28 143 66 311 56 241 77 318 101 360 16
28 33 60 36 70 3 9 9 17 14 17 5 0 9 4 9 9 0 26 124 191 206 277 97 100 217
169 318 184 52 7 71 6 139 -11z"/>
</g>
</svg>
